<?xml version="1.0" encoding="utf-8"?>
<!-- Generator: Adobe Illustrator 22.0.1, SVG Export Plug-In . SVG Version: 6.00 Build 0)  -->
<svg version="1.1" id="Layer_1" xmlns="http://www.w3.org/2000/svg" xmlns:xlink="http://www.w3.org/1999/xlink" x="0px" y="0px"
	 viewBox="0 0 14 14" style="enable-background:new 0 0 14 14;" xml:space="preserve">
<style type="text/css">
	.st0{fill:#6742C0;}
</style>
<g>
	<path class="st0" d="M7.6,3.3C7.6,3,7.3,3.1,7,3.1C7.2,3.1,7.4,3.2,7.6,3.3z"/>
	<path class="st0" d="M4.3,2.6c-1.2,0-1.7,1.5-0.8,2.3c0.3-0.9,1-1.5,1.8-1.7C5.1,2.8,4.8,2.6,4.3,2.6z"/>
	<path class="st0" d="M1.9,4.6C1.9,4.7,2,4.9,2.1,5L1.7,5.4c-0.1,0.1-0.1,0.3,0,0.4l0.7,0.7c0.1,0.1,0.1,0.1,0.2,0.1
		c0.1,0,0.1,0,0.2-0.1l0.4-0.4c0.1,0,0.1,0.1,0.2,0.1c0,0,0,0,0,0c0-0.3,0-0.6,0.1-0.9C2.9,5,2.6,4.4,2.6,3.8c0-0.9,0.8-1.7,1.7-1.7
		C5,2.1,5.5,2.5,5.8,3c0.3,0,0.6,0,1,0c0-0.1-0.1-0.3-0.2-0.4L7,2.2C7.1,2.2,7.1,2.1,7.1,2c0-0.1,0-0.1-0.1-0.2L6.3,1.2
		C6.3,1.1,6.2,1.1,6.1,1.1c-0.1,0-0.1,0-0.2,0.1L5.5,1.6C5.4,1.5,5.3,1.4,5.1,1.4V0.8c0-0.1-0.1-0.3-0.3-0.3h-1
		c-0.1,0-0.3,0.1-0.3,0.3v0.6c-0.2,0-0.3,0.1-0.4,0.2L2.7,1.2C2.7,1.1,2.6,1.1,2.6,1.1c-0.1,0-0.1,0-0.2,0.1L1.7,1.8
		C1.6,1.9,1.6,2,1.6,2c0,0.1,0,0.1,0.1,0.2l0.4,0.4C2,2.8,1.9,2.9,1.9,3.1H1.3c-0.1,0-0.3,0.1-0.3,0.3v1c0,0.1,0.1,0.3,0.3,0.3H1.9z
		"/>
	<path class="st0" d="M10.3,9.8c0.4-0.2,0.7-0.7,0.7-1.2c0-0.8-0.6-1.4-1.4-1.4c-0.3,0-0.5,0.1-0.7,0.2c-0.1,0.5-0.3,1-0.6,1.4
		C9.1,9,9.8,9.3,10.3,9.8z"/>
	<path class="st0" d="M13.2,8.1c0-0.2-0.1-0.3-0.3-0.3h-0.6c-0.1-0.2-0.1-0.3-0.2-0.5l0.4-0.4c0.1-0.1,0.1-0.1,0.1-0.2
		c0-0.1,0-0.2-0.1-0.2l-0.7-0.7c-0.1-0.1-0.1-0.1-0.2-0.1c-0.1,0-0.1,0-0.2,0.1L11,6.1c-0.2-0.1-0.3-0.1-0.5-0.2V5.3
		c0-0.2-0.1-0.3-0.3-0.3H9.1C9.1,5.1,9,5.1,9,5.1c0.1,0.3,0.1,0.7,0.1,1c0,0.2,0,0.5-0.1,0.7c0.2-0.1,0.4-0.1,0.6-0.1
		c1,0,1.8,0.8,1.8,1.8c0,0.6-0.3,1.2-0.8,1.5c0.4,0.4,0.7,0.9,0.8,1.4c0,0,0.1,0,0.1,0c0.1,0,0.1,0,0.2-0.1l0.7-0.7
		c0.1-0.1,0.1-0.1,0.1-0.2c0-0.1,0-0.2-0.1-0.2l-0.4-0.4c0.1-0.2,0.1-0.3,0.2-0.5h0.6c0.1,0,0.2,0,0.2-0.1c0.1-0.1,0.1-0.1,0.1-0.2
		L13.2,8.1z"/>
	<path class="st0" d="M10.9,11.8c-0.5-1.3-1.6-2.2-3-2.4c-0.5,0.5-1,0.8-1.7,0.8c-0.6,0-1.2-0.3-1.7-0.8c-1.4,0.1-2.6,1-3,2.4
		l-0.2,0.7c-0.1,0.2,0,0.4,0.1,0.6c0.1,0.2,0.3,0.3,0.6,0.3h8.6c0.2,0,0.4-0.1,0.6-0.3c0.1-0.2,0.2-0.4,0.1-0.6L10.9,11.8z"/>
	<path class="st0" d="M4,6.2c0,1.6,1,3.4,2.2,3.4c1.2,0,2.2-1.8,2.2-3.4C8.5,2.8,4,2.7,4,6.2z"/>
</g>
</svg>
