<?xml version="1.0" encoding="utf-8"?>
<!-- Generator: Adobe Illustrator 22.0.1, SVG Export Plug-In . SVG Version: 6.00 Build 0)  -->
<svg version="1.1" id="Layer_1" xmlns="http://www.w3.org/2000/svg" xmlns:xlink="http://www.w3.org/1999/xlink" x="0px" y="0px"
	 viewBox="0 0 14 14" style="enable-background:new 0 0 14 14;" xml:space="preserve">
<style type="text/css">
	.st0{fill:#6742C0;}
</style>
<g>
	<g>
		<defs>
			<rect id="SVGID_1_" width="14" height="14"/>
		</defs>
		<clipPath id="SVGID_2_">
			<use xlink:href="#SVGID_1_"  style="overflow:visible;"/>
		</clipPath>
	</g>
</g>
<g>
	<g id="ic_AdministrativeHierarchy">
		<g id="hierarchical-structure" transform="translate(0.543 -32.529)">
			<g id="Group_16" transform="translate(6.355 39.612)">
				<g id="Group_15">
					<path id="Path_41" class="st0" d="M0.2,0C0.1,0,0,0.1,0,0.2v3.3c0,0.1,0.1,0.2,0.2,0.2c0.1,0,0.2-0.1,0.2-0.2V0.2
						C0.4,0.1,0.3,0,0.2,0L0.2,0z"/>
				</g>
			</g>
			<g id="Group_18" transform="translate(5.26 42.899)">
				<g id="Group_17">
					<path id="Path_42" class="st0" d="M2.4,0H0.2C0.1,0,0,0.1,0,0.2v2.2c0,0.1,0.1,0.2,0.2,0.2h2.2c0.1,0,0.2-0.1,0.2-0.2V0.2
						C2.6,0.1,2.5,0,2.4,0z"/>
				</g>
			</g>
			<g id="Group_20" transform="translate(0 42.899)">
				<g id="Group_19">
					<path id="Path_43" class="st0" d="M2.4,0H0.2C0.1,0,0,0.1,0,0.2v2.2c0,0.1,0.1,0.2,0.2,0.2h2.2c0.1,0,0.2-0.1,0.2-0.2V0.2
						C2.6,0.1,2.5,0,2.4,0z"/>
				</g>
			</g>
			<g id="Group_22" transform="translate(10.519 42.899)">
				<g id="Group_21">
					<path id="Path_44" class="st0" d="M2.4,0H0.2C0.1,0,0,0.1,0,0.2v2.2c0,0.1,0.1,0.2,0.2,0.2h2.2c0.1,0,0.2-0.1,0.2-0.2V0.2
						C2.6,0.1,2.5,0,2.4,0z M2.2,2.2H0.4V0.4h1.8V2.2z"/>
				</g>
			</g>
			<g id="Group_24" transform="translate(1.096 40.707)">
				<g id="Group_23">
					<path id="Path_45" class="st0" d="M8.8,0H2.2C1,0,0,1,0,2.2c0,0.1,0.1,0.2,0.2,0.2c0.1,0,0.2-0.1,0.2-0.2c0-1,0.8-1.8,1.8-1.8
						h6.6c1,0,1.8,0.8,1.8,1.8c0,0.1,0.1,0.2,0.2,0.2c0.1,0,0.2-0.1,0.2-0.2C11,1,10,0,8.8,0z"/>
				</g>
			</g>
			<g id="Group_26" transform="translate(0 34.133)">
				<g id="Group_25">
					<path id="Path_46" class="st0" d="M12.9,0H0.2C0.1,0,0,0.1,0,0.2c0,0,0,0,0,0v5.3c0,0.1,0.1,0.2,0.2,0.2c0,0,0,0,0,0h12.7
						c0.1,0,0.2-0.1,0.2-0.2l0,0V0.2C13.1,0.1,13.1,0,12.9,0z M12.7,5.3H0.4V0.4h12.3V5.3L12.7,5.3z"/>
				</g>
			</g>
			<g id="Group_28" transform="translate(3.287 35.667)">
				<g id="Group_27">
					<path id="Path_47" class="st0" d="M6.4,0H0.2C0.1,0,0,0.1,0,0.2s0.1,0.2,0.2,0.2h6.1c0.1,0,0.2-0.1,0.2-0.2S6.5,0,6.4,0z"/>
				</g>
			</g>
			<g id="Group_30" transform="translate(3.287 36.763)">
				<g id="Group_29">
					<path id="Path_48" class="st0" d="M6.4,0H0.2C0.1,0,0,0.1,0,0.2c0,0.1,0.1,0.2,0.2,0.2h6.1c0.1,0,0.2-0.1,0.2-0.2
						C6.6,0.1,6.5,0,6.4,0z"/>
				</g>
			</g>
			<g id="Group_32" transform="translate(3.287 37.859)">
				<g id="Group_31">
					<path id="Path_49" class="st0" d="M6.4,0H0.2C0.1,0,0,0.1,0,0.2c0,0.1,0.1,0.2,0.2,0.2h6.1c0.1,0,0.2-0.1,0.2-0.2
						C6.6,0.1,6.5,0,6.4,0z"/>
				</g>
			</g>
		</g>
	</g>
</g>
</svg>
