<?xml version="1.0" encoding="utf-8"?>
<!-- Generator: Adobe Illustrator 22.0.1, SVG Export Plug-In . SVG Version: 6.00 Build 0)  -->
<svg version="1.1" id="Layer_1" xmlns="http://www.w3.org/2000/svg" xmlns:xlink="http://www.w3.org/1999/xlink" x="0px" y="0px"
	 viewBox="0 0 14 14" style="enable-background:new 0 0 14 14;" xml:space="preserve">
<style type="text/css">
	.st0{fill:#6742C0;}
</style>
<g>
	<g>
		<defs>
			<rect id="SVGID_1_" width="14" height="14"/>
		</defs>
		<clipPath id="SVGID_2_">
			<use xlink:href="#SVGID_1_"  style="overflow:visible;"/>
		</clipPath>
	</g>
</g>
<g id="ic_CommunicationDetails">
	<path id="Path_34" class="st0" d="M8,6.1c0.1,0,0.3-0.1,0.3-0.3c0-0.1-0.1-0.3-0.3-0.3c-0.1,0-0.3,0.1-0.3,0.3c0,0,0,0,0,0
		C7.8,6,7.9,6.1,8,6.1z"/>
	<path id="Path_35" class="st0" d="M8,7.9c0.1,0,0.3-0.1,0.3-0.3c0-0.1-0.1-0.3-0.3-0.3c-0.1,0-0.3,0.1-0.3,0.3c0,0,0,0,0,0
		C7.8,7.7,7.9,7.8,8,7.9z"/>
	<path id="Path_36" class="st0" d="M13.2,2h-2.2c-0.2,0-0.3,0.1-0.3,0.3c0,0.5-0.3,0.8-0.8,0.9c-0.5,0-0.8-0.4-0.8-0.9
		C9.3,2.1,9.2,2,9,2H5C4.8,2,4.7,2.1,4.7,2.3c0,0.5-0.3,0.8-0.8,0.9c-0.5,0-0.8-0.4-0.8-0.9C3.2,2.1,3.1,2,2.9,2H0.8
		C0.6,2,0.5,2.1,0.5,2.3v9.4c0,0.2,0.1,0.3,0.3,0.3h12.5c0.2,0,0.3-0.1,0.3-0.3V2.3C13.5,2.1,13.4,2,13.2,2z M13,11.4H1V2.6h1.7
		C2.8,3.2,3.3,3.7,4,3.8c0.6,0,1.2-0.5,1.2-1.2h3.6C8.9,3.2,9.4,3.7,10,3.8c0.6,0,1.2-0.5,1.2-1.2H13L13,11.4z"/>
	<path id="Path_37" class="st0" d="M5.1,7.6c0.5-0.5,0.6-1.3,0.1-1.8S3.9,5.2,3.4,5.7S2.8,7,3.3,7.5c0,0,0.1,0.1,0.1,0.1
		C2.6,7.9,2.2,8.7,2.2,9.5v0.3c0,0.1,0.1,0.3,0.3,0.3H6c0.1,0,0.3-0.1,0.3-0.3V9.5C6.2,8.7,5.8,7.9,5.1,7.6z M2.7,9.5
		c0-0.8,0.6-1.5,1.5-1.6s1.5,0.6,1.6,1.5c0,0,0,0.1,0,0.1H2.7z"/>
	<path id="Path_38" class="st0" d="M11.7,7.3H9c-0.1,0-0.3,0.1-0.3,0.3c0,0.1,0.1,0.3,0.3,0.3h2.7c0.1,0,0.3-0.1,0.3-0.3
		C12,7.5,11.9,7.3,11.7,7.3L11.7,7.3z"/>
	<path id="Path_39" class="st0" d="M8.8,5.8C8.8,6,8.9,6.1,9,6.1h2.7C11.9,6.1,12,6,12,5.8s-0.1-0.3-0.3-0.3l0,0H9
		C8.9,5.6,8.8,5.7,8.8,5.8L8.8,5.8z"/>
	<path id="Path_40" class="st0" d="M11.7,9.1H8c-0.1,0-0.3,0.1-0.3,0.3c0,0.1,0.1,0.3,0.3,0.3h3.7c0.1,0,0.3-0.1,0.3-0.3
		C12,9.2,11.9,9.1,11.7,9.1L11.7,9.1z"/>
</g>
</svg>
