<?xml version="1.0" encoding="utf-8"?>
<!-- Generator: Adobe Illustrator 22.0.1, SVG Export Plug-In . SVG Version: 6.00 Build 0)  -->
<svg version="1.1" id="Layer_1" xmlns="http://www.w3.org/2000/svg" xmlns:xlink="http://www.w3.org/1999/xlink" x="0px" y="0px"
	 viewBox="0 0 14 14" style="enable-background:new 0 0 14 14;" xml:space="preserve">
<style type="text/css">
	.st0{clip-path:url(#SVGID_2_);}
	.st1{fill:#6742C0;}
</style>
<g>
	<defs>
		<rect id="SVGID_1_" width="14" height="14"/>
	</defs>
	<clipPath id="SVGID_2_">
		<use xlink:href="#SVGID_1_"  style="overflow:visible;"/>
	</clipPath>
	<g id="ic_driverduty" class="st0">
		<g id="Group_7" transform="translate(-0.5 1.3)">
			<g id="Path_12" transform="translate(9.856 5.597)">
				<path class="st1" d="M0,0h2.3v1H0V0z"/>
				<path class="st1" d="M0,0h2.3v1H0V0z"/>
			</g>
			<g id="Path_11" transform="translate(9.856 7.68)">
				<path class="st1" d="M0,0h3.1v1H0V0z"/>
				<path class="st1" d="M0,0h3.1v1H0V0z"/>
			</g>
			<g id="Path_10" transform="translate(14.856 9.764)">
				<path class="st1" d="M-5,0h4.2v1H-5V0z"/>
				<path class="st1" d="M-5,0h4.2v1H-5V0z"/>
			</g>
			<g id="Group_6" transform="translate(1 0.7)">
				<g id="Group_1" transform="translate(0 4.68)">
					<path id="Path_1" class="st1" d="M4.1,2.5c-1.2,0-2.2,1-2.2,2.2h4.4C6.3,3.4,5.3,2.5,4.1,2.5z"/>
					<path id="Path_2" class="st1" d="M5.3,0C5.2,0,5.1,0.1,5,0.1L4.3,1.3C4.2,1.4,4,1.4,3.9,1.3c0,0,0,0-0.1-0.1L3.1,0.1
						C3,0.1,2.9,0,2.8,0C1.3,0,0.1,1.2,0,2.7v2.6c0,0,0,0.1,0.1,0.1h1.5C1.8,5.4,2,5.2,2,5c0-0.2-0.2-0.4-0.4-0.4H1.3
						c0-1.5,1.3-2.7,2.8-2.7c1.5,0,2.7,1.2,2.7,2.7H6.6C6.3,4.6,6.1,4.8,6.1,5c0,0.2,0.2,0.4,0.4,0.4H8c0,0,0.1,0,0.1-0.1V2.7
						C8,1.2,6.8,0,5.3,0z"/>
				</g>
				<path id="Path_3" class="st1" d="M4,0C3,0,2.2,0.8,2.2,1.9S3,3.7,4,3.7s1.9-0.8,1.9-1.9S5.1,0,4,0L4,0z M4,3.1
					c-0.7,0-1.3-0.6-1.3-1.3S3.3,0.6,4,0.6s1.3,0.6,1.3,1.3c0,0,0,0,0,0C5.3,2.6,4.8,3.1,4,3.1z"/>
			</g>
		</g>
	</g>
</g>
</svg>
