<svg xmlns="http://www.w3.org/2000/svg" xmlns:xlink="http://www.w3.org/1999/xlink" width="18" height="18" viewBox="0 0 18 18">
  <defs>
    <clipPath id="clip-ic_devicereport_s">
      <rect width="18" height="18"/>
    </clipPath>
  </defs>
  <g id="ic_devicereport_s" clip-path="url(#clip-ic_devicereport_s)">
    <g id="ic_DeviceReport" transform="translate(1 1)">
      <g id="Group_14" transform="translate(0 0)">
        <g id="Group_13" transform="translate(0 11.154)">
          <path id="Path_23" d="M16.406,9.2H.5v4a.83.83,0,0,0,.85.85H15.556a.83.83,0,0,0,.85-.85h0ZM2.2,13.439a1.093,1.093,0,1,1,1.093-1.093A1.088,1.088,0,0,1,2.2,13.439Zm5.342-.85h-3.4a.243.243,0,0,1,0-.486h3.4a.261.261,0,0,1,.243.243C7.906,12.467,7.785,12.589,7.542,12.589Zm2.064.364H9V11.86h.607Zm1.093,0h-.607V11.86H10.7Zm1.093,0h-.486V11.86h.607Zm1.214,0H12.4V11.86h.607Zm1.093,0h-.607V11.86H14.1Zm1.093,0h-.607V11.86h.607Z" transform="translate(-0.5 -9.2)" fill="#fff"/>
          <path id="Path_27" d="M2.614,12.707a.574.574,0,0,1-.607.607.607.607,0,1,1,0-1.214.574.574,0,0,1,.607.607Z" transform="translate(-0.307 -9.561)" fill="#fff"/>
        </g>
        <g id="pie-chart_1_" transform="translate(3.063)">
          <path id="Path_28" d="M6.386,4.557A2.12,2.12,0,0,1,5.9,6.014L7.478,7.592a4.933,4.933,0,0,0,0-6.192L5.9,3.1A2.12,2.12,0,0,1,6.386,4.557Z" transform="translate(1.142 0.284)" fill="#fff"/>
          <path id="Path_29" d="M6.414,6.221A2.731,2.731,0,0,1,2.65,5.493L2.285,4.4H.1A4.9,4.9,0,0,0,5.442,8.771a4.833,4.833,0,0,0,2.55-1.093Z" transform="translate(-0.1 0.926)" fill="#fff"/>
          <path id="Path_30" d="M2.285,4.368A2.744,2.744,0,0,1,5.442,2.183a2.441,2.441,0,0,1,.971.486L7.992,1.09a4.831,4.831,0,0,0-6.8.728A4.833,4.833,0,0,0,.1,4.368Z" transform="translate(-0.1 -0.013)" fill="#fff"/>
        </g>
      </g>
    </g>
  </g>
</svg>
