<svg xmlns="http://www.w3.org/2000/svg" xmlns:xlink="http://www.w3.org/1999/xlink" width="18" height="18" viewBox="0 0 18 18">
  <defs>
    <clipPath id="clip-ic_DriverManagement_s">
      <rect width="18" height="18"/>
    </clipPath>
  </defs>
  <g id="ic_DriverManagement_s" clip-path="url(#clip-ic_DriverManagement_s)">
    <g id="Group_2" data-name="Group 2" transform="translate(2.5 0.8)">
      <g id="Group_1" data-name="Group 1" transform="translate(0 7.616)">
        <path id="Path_1" data-name="Path 1" d="M8.964,12.427a3.579,3.579,0,0,0-3.579,3.579h7.159a3.579,3.579,0,0,0-3.579-3.579Z" transform="translate(-2.374 -8.422)" fill="#18bfff"/>
        <path id="Path_2" data-name="Path 2" d="M10.925,8.382a.5.5,0,0,0-.427.237l-1.183,1.8a.474.474,0,0,1-.759,0L7.37,8.619a.5.5,0,0,0-.427-.237,4.671,4.671,0,0,0-4.6,4.455V17.1a.118.118,0,0,0,.118.118h2.37a.687.687,0,1,0,0-1.374H4.48a4.457,4.457,0,0,1,8.909,0h-.354a.687.687,0,1,0,0,1.374h2.37a.118.118,0,0,0,.118-.118V12.837A4.671,4.671,0,0,0,10.925,8.382Z" transform="translate(-2.345 -8.382)" fill="#18bfff"/>
      </g>
      <path id="Path_3" data-name="Path 3" d="M8.97.69a3.05,3.05,0,1,0,3.05,3.05A3.05,3.05,0,0,0,8.97.69Zm0,5.117A2.068,2.068,0,1,1,11.038,3.74,2.068,2.068,0,0,1,8.97,5.807Z" transform="translate(-2.38 -0.69)" fill="#18bfff"/>
    </g>
  </g>
</svg>
