<?xml version="1.0" encoding="utf-8"?>
<!-- Generator: Adobe Illustrator 22.0.1, SVG Export Plug-In . SVG Version: 6.00 Build 0)  -->
<svg version="1.1" id="Layer_1" xmlns="http://www.w3.org/2000/svg" xmlns:xlink="http://www.w3.org/1999/xlink" x="0px" y="0px"
	 viewBox="0 0 200 200" style="enable-background:new 0 0 200 200;" xml:space="preserve">
<style type="text/css">
	.st0{fill:#F2F2F2;}
	.st1{fill:#898989;}
</style>
<g>
	<rect class="st0" width="200" height="200"/>
	<g>
		<path class="st1" d="M101.9,137.8c3.8-10.4,7.7-20.8,11.5-31.2c4.4-12,6.9-13.1,18.8-8.5c9.3,3.6,14.2,10.6,14.5,20.5
			c0.3,10.2,0.3,20.4,0,30.6c-0.2,7.3-3.6,10.6-11.1,10.6c-23.7,0.1-47.4,0.1-71.1,0c-7.4,0-10.6-3.4-10.7-10.8
			c-0.1-10.2-0.2-20.4,0-30.6c0.3-14.7,12.4-24.7,26.9-22.2c1.6,0.3,3.3,2.8,4,4.6c4,10.4,7.7,21,11.7,31.5c0.7,2,1.9,3.8,2.9,5.7
			C100.3,138,101.1,137.9,101.9,137.8z"/>
		<path class="st1" d="M100.2,86.6c-13.3-0.1-23.7-10.5-23.7-23.8c0-13.3,10.6-23.8,23.8-23.8c13,0,23.9,10.9,23.9,23.9
			C124.2,75.9,113.3,86.7,100.2,86.6z"/>
		<path class="st1" d="M95,95.4c1.9-0.3,4.8-1.3,7.4-0.8c1.3,0.2,2.9,3.2,2.9,5c0,4.3-0.9,8.7-1.5,13c-0.6,4.4-1.4,8.7-2,13.1
			c-1.1,0-2.2,0-3.3,0.1C97.5,116,96.3,106.3,95,95.4z"/>
	</g>
</g>
</svg>
