<?xml version="1.0" encoding="utf-8"?>
<!-- Generator: Adobe Illustrator 22.0.1, SVG Export Plug-In . SVG Version: 6.00 Build 0)  -->
<svg version="1.1" id="Layer_1" xmlns="http://www.w3.org/2000/svg" xmlns:xlink="http://www.w3.org/1999/xlink" x="0px" y="0px"
	 viewBox="0 0 14 14" style="enable-background:new 0 0 14 14;" xml:space="preserve">
<style type="text/css">
	.st0{fill:#6742C0;}
</style>
<path class="st0" d="M6.5,8.3l5.2,5.2H1.3L6.5,8.3z M12.2,6.4v6.5L7,7.8l1-1c0,0,0,0-0.1-0.1C7.8,6.5,7.7,6.3,7.5,6.1l-6.8,6.8V2.3
	C0.7,2.2,0.9,2,1,2h6.2C7.8,1.1,8.8,0.5,10,0.5c1.8,0,3.3,1.5,3.3,3.3C13.3,5,12.7,5.7,12.2,6.4z M5.8,4.7H3.9v0.7H5
	C4.8,5.9,4.4,6.2,3.9,6.2C3.2,6.2,2.7,5.7,2.7,5s0.5-1.2,1.2-1.2c0.3,0,0.5,0.1,0.7,0.2L5,3.5C4.7,3.3,4.3,3.1,3.9,3.1
	C2.8,3.1,2,4,2,5s0.9,1.9,1.9,1.9c1,0,1.9-0.9,1.9-1.9L5.8,4.7L5.8,4.7z M12.5,3.8c0-1.4-1.1-2.5-2.5-2.5c-1.4,0-2.5,1.1-2.5,2.5
	c0,2.1,2.4,2.7,2.4,5.2H10h0.2C10.1,6.5,12.5,5.9,12.5,3.8z M10,2.7c-0.5,0-1,0.4-1,1c0,0.5,0.4,1,1,1c0.5,0,1-0.4,1-1
	C11,3.1,10.5,2.7,10,2.7z"/>
</svg>
