<svg id="Layer_1" data-name="Layer 1" xmlns="http://www.w3.org/2000/svg" viewBox="0 0 54 54"><defs><style>.cls-1{fill:#fff1e0;stroke:#ffe9d2;stroke-miterlimit:10;}.cls-2{fill:#ffb04c;}.cls-3{fill:#fff;}.cls-4{fill:#f64938;}</style></defs><title>ic_IoTdevicemap</title><circle class="cls-1" cx="27" cy="27" r="25"/><path class="cls-2" d="M32.09,11H21.91A2.85,2.85,0,0,0,19,13.89V40.11A2.85,2.85,0,0,0,21.91,43H32.09A2.85,2.85,0,0,0,35,40.11V13.89A2.85,2.85,0,0,0,32.09,11Zm-7.27,1.77c0-.18.08-.32.19-.32h4c.1,0,.19.14.19.32v.09c0,.18-.09.32-.19.32H25c-.1,0-.19-.15-.19-.32Zm8.73,26.49h-5.1a1.45,1.45,0,1,1-2.9,0h-5.1V14.61h13.1Z"/><path class="cls-3" d="M33.55,39.24h-5.1a1.45,1.45,0,1,1-2.9,0h-5.1V14.61h13.1Z"/><path class="cls-4" d="M27.71,31.92H29v.81H25v-.81h1.34V25.46H25v-.81h2.74Zm-1.79-9.78a.85.85,0,0,1,.26-.61.83.83,0,0,1,1.21,0,.85.85,0,0,1,.26.61.86.86,0,0,1-.25.61.87.87,0,0,1-1.22,0A.83.83,0,0,1,25.92,22.14Z"/></svg>