<?xml version="1.0" encoding="utf-8"?>
<!-- Generator: Adobe Illustrator 22.0.1, SVG Export Plug-In . SVG Version: 6.00 Build 0)  -->
<svg version="1.1" id="Layer_1" xmlns="http://www.w3.org/2000/svg" xmlns:xlink="http://www.w3.org/1999/xlink" x="0px" y="0px"
	 viewBox="0 0 14 14" style="enable-background:new 0 0 14 14;" xml:space="preserve">
<style type="text/css">
	.st0{clip-path:url(#SVGID_2_);}
	.st1{fill:#6742C0;}
</style>
<g>
	<defs>
		<rect id="SVGID_1_" width="14" height="14"/>
	</defs>
	<clipPath id="SVGID_2_">
		<use xlink:href="#SVGID_1_"  style="overflow:visible;"/>
	</clipPath>
	<g id="ic_livetracking" class="st0">
		<g id="Livello_110" transform="translate(-20.979 -6.028)">
			<path id="Path_1" class="st1" d="M30,11.3c0,1.3-1.1,2.4-2.4,2.4c-1.3,0-2.4-1.1-2.4-2.4c0-1.3,1.1-2.4,2.4-2.4c0,0,0,0,0,0
				C28.9,8.9,30,9.9,30,11.3C30,11.3,30,11.3,30,11.3 M32.5,11.3c0-2.6-2.1-4.8-4.7-4.8S23,8.6,23,11.2c0,1.1,0.4,2.2,1.1,3.1
				l3.7,5.3l3.7-5.3c0.1-0.2,0.3-0.3,0.4-0.5l0-0.1h0C32.3,12.9,32.5,12.1,32.5,11.3"/>
		</g>
	</g>
</g>
</svg>
