<svg xmlns="http://www.w3.org/2000/svg" xmlns:xlink="http://www.w3.org/1999/xlink" width="18" height="18" viewBox="0 0 18 18">
  <defs>
    <clipPath id="clip-ic_mapview_s">
      <rect width="18" height="18"/>
    </clipPath>
  </defs>
  <g id="ic_mapview_s" clip-path="url(#clip-ic_mapview_s)">
    <path id="ic_google_map_blue" d="M7.838,10.1l6.4,6.4H1.438Zm7.015-2.338v8l-6.4-6.277L9.685,8.254l-.123-.123a2.575,2.575,0,0,0-.492-.738L.7,15.762V2.715a.555.555,0,0,1,.369-.369H8.7a4.089,4.089,0,0,1,7.508,2.215A5.118,5.118,0,0,1,14.854,7.762ZM6.977,5.669H4.638v.862H5.992a1.44,1.44,0,0,1-1.354.985A1.422,1.422,0,0,1,3.162,6.038,1.422,1.422,0,0,1,4.638,4.562a1.779,1.779,0,0,1,.862.246l.492-.615A2.581,2.581,0,0,0,4.638,3.7,2.337,2.337,0,0,0,2.3,6.038,2.421,2.421,0,0,0,4.638,8.377,2.421,2.421,0,0,0,6.977,6.038V5.669Zm8.246-1.108a3.077,3.077,0,0,0-6.154,0c0,2.585,2.954,3.323,2.954,6.4h.369C12.269,7.885,15.223,7.146,15.223,4.562ZM12.146,3.208a1.231,1.231,0,1,0,1.231,1.231A1.233,1.233,0,0,0,12.146,3.208Z" transform="translate(0.8 0.5)" fill="#fff"/>
  </g>
</svg>
