<?xml version="1.0" encoding="utf-8"?>
<!-- Generator: Adobe Illustrator 22.0.1, SVG Export Plug-In . SVG Version: 6.00 Build 0)  -->
<svg version="1.1" id="Layer_1" xmlns="http://www.w3.org/2000/svg" xmlns:xlink="http://www.w3.org/1999/xlink" x="0px" y="0px"
	 viewBox="0 0 14 14" style="enable-background:new 0 0 14 14;" xml:space="preserve">
<style type="text/css">
	.st0{clip-path:url(#SVGID_2_);}
	.st1{fill:#6742C0;}
</style>
<g>
	<defs>
		<rect id="SVGID_1_" width="14" height="14"/>
	</defs>
	<clipPath id="SVGID_2_">
		<use xlink:href="#SVGID_1_"  style="overflow:visible;"/>
	</clipPath>
	<g id="ic_modemdetails" class="st0">
		<g id="router" transform="translate(0.5 -5.692)">
			<path id="Path_23" class="st1" d="M13.1,13.9H0V16c0,0.4,0.3,0.7,0.7,0.7c0,0,0,0,0,0h11.7c0.4,0,0.7-0.3,0.7-0.7l0,0L13.1,13.9z
				 M1.4,16.2c-0.5,0-0.9-0.4-0.9-0.9c0-0.5,0.4-0.9,0.9-0.9c0.5,0,0.9,0.4,0.9,0.9S1.9,16.2,1.4,16.2C1.4,16.2,1.4,16.2,1.4,16.2z
				 M5.8,15.5H3c-0.1,0-0.2-0.1-0.2-0.2c0-0.1,0.1-0.2,0.2-0.2h2.8c0.1,0,0.2,0.1,0.2,0.2C6.1,15.4,6,15.5,5.8,15.5z M7.5,15.8H7
				v-0.9h0.5L7.5,15.8z M8.4,15.8H7.9v-0.9h0.5L8.4,15.8z M9.3,15.8H8.9v-0.9h0.5L9.3,15.8z M10.3,15.8H9.8v-0.9h0.5L10.3,15.8z
				 M11.2,15.8h-0.5v-0.9h0.5L11.2,15.8z M12.1,15.8h-0.5v-0.9h0.5V15.8z"/>
			<path id="Path_26" class="st1" d="M0.8,10.2l-0.7,3.2h13l-0.7-3.2c-0.1-0.3-0.4-0.5-0.7-0.5H1.4C1.1,9.7,0.8,9.9,0.8,10.2
				L0.8,10.2z M10.7,10.2h0.9c0.1,0,0.2,0.1,0.2,0.2c0,0.1-0.1,0.2-0.2,0.2h-0.9c-0.1,0-0.2-0.1-0.2-0.2
				C10.5,10.3,10.6,10.2,10.7,10.2z M10,10.4c0,0.1-0.1,0.2-0.2,0.2c0,0,0,0,0,0H1.4c-0.1,0-0.2-0.1-0.2-0.2c0-0.1,0.1-0.2,0.2-0.2
				h8.4C9.9,10.2,10,10.3,10,10.4C10,10.4,10,10.4,10,10.4L10,10.4z"/>
			<path id="Path_27" class="st1" d="M1.9,15.3c0,0.3-0.2,0.5-0.5,0.5c-0.3,0-0.5-0.2-0.5-0.5c0-0.3,0.2-0.5,0.5-0.5
				C1.7,14.8,1.9,15,1.9,15.3L1.9,15.3z"/>
		</g>
	</g>
</g>
</svg>
