<svg xmlns="http://www.w3.org/2000/svg" xmlns:xlink="http://www.w3.org/1999/xlink" width="18" height="18" viewBox="0 0 18 18">
  <defs>
    <clipPath id="clip-ic_PanicAlerts">
      <rect width="18" height="18"/>
    </clipPath>
  </defs>
  <g id="ic_PanicAlerts" clip-path="url(#clip-ic_PanicAlerts)">
    <g id="ic_panic-alert" transform="translate(-3.16 -1.912)">
      <path id="Path_126" data-name="Path 126" d="M22.99,19.378V16.9a.83.83,0,0,0-.721-.827.81.81,0,0,0-.724.807V15.868a.827.827,0,0,0-.721-.827.827.827,0,0,0-.721.827v-.827a.827.827,0,0,0-.724-.824.814.814,0,0,0-.721.824V12.567a.83.83,0,0,0-.708-.827.83.83,0,0,0-.721.827v5.779A4.2,4.2,0,0,0,16.2,16.073c-.453-.453-1.733-.142-1.032.827a6.407,6.407,0,0,1,.8,2.891,2.686,2.686,0,0,0,1.442,2.474v1.446h4.962V22.266h0c.662-.887.619-.843.619-2.888" transform="translate(-6.557 -5.908)" fill="#ffdb6c"/>
      <path id="Path_127" data-name="Path 127" d="M28.883,42.1h-.622a.208.208,0,0,1,0-.413h.622a.208.208,0,0,1,0,.413Z" transform="translate(-15.338 -25.951)" fill="#ffb04c"/>
      <path id="Path_128" data-name="Path 128" d="M28.667,44.6H27.631a.208.208,0,0,1,0-.413h1.032a.208.208,0,0,1,0,.413Z" transform="translate(-14.916 -27.624)" fill="#ffb04c"/>
      <path id="Path_129" data-name="Path 129" d="M25.717,23.622a.2.2,0,0,1-.208-.208V20.731a.208.208,0,0,1,.413,0v2.683a.2.2,0,0,1-.205.208Z" transform="translate(-13.618 -11.803)" fill="#ffb04c"/>
      <path id="Path_130" data-name="Path 130" d="M30.085,25.395a.2.2,0,0,1-.208-.205V23.125a.208.208,0,1,1,.413,0v2.064a.2.2,0,0,1-.205.205Z" transform="translate(-16.54 -13.37)" fill="#ffb04c"/>
      <path id="Path_131" data-name="Path 131" d="M34.452,27.483a.2.2,0,0,1-.205-.205V26.245a.208.208,0,1,1,.413,0v1.032a.2.2,0,0,1-.208.205Z" transform="translate(-19.464 -15.458)" fill="#ffb04c"/>
      <rect id="Rectangle_60" data-name="Rectangle 60" width="4.958" height="0.38" transform="translate(10.859 17.803)" fill="#303e48"/>
      <path id="Path_132" data-name="Path 132" d="M17.432,10.577a2.236,2.236,0,1,1,4.3-.89,2.315,2.315,0,0,1-.1.662l-.85-.261a1.3,1.3,0,0,0,.06-.394,1.35,1.35,0,1,0-2.587.536Z" transform="translate(-8.098 -3.058)" fill="#f64938"/>
      <path id="Path_133" data-name="Path 133" d="M14.39,9.709a3.715,3.715,0,1,1,5.789-3.08A3.754,3.754,0,0,1,19.957,7.9l-.84-.311a2.874,2.874,0,0,0,.169-.963,2.828,2.828,0,1,0-4.406,2.345Z" transform="translate(-5.079 0)" fill="#f64938"/>
      <ellipse id="Ellipse_10" data-name="Ellipse 10" cx="6.986" cy="0.232" rx="6.986" ry="0.232" transform="translate(5.16 18.561)" opacity="0.2"/>
    </g>
  </g>
</svg>
