<svg xmlns="http://www.w3.org/2000/svg" xmlns:xlink="http://www.w3.org/1999/xlink" width="18" height="18" viewBox="0 0 18 18">
  <defs>
    <clipPath id="clip-ic_PanicAlerts_mobile">
      <rect width="18" height="18"/>
    </clipPath>
  </defs>
  <g id="ic_PanicAlerts_mobile" clip-path="url(#clip-ic_PanicAlerts_mobile)">
    <path id="Path_144" data-name="Path 144" d="M97,20.063v-.01a5.053,5.053,0,1,1,9.016,3.145l-3.74,4.727a.294.294,0,0,1-.445,0L98.09,23.2A5.1,5.1,0,0,1,97,20.063Z" transform="translate(-92.919 -13.645)" fill="#f64938"/>
    <path id="Path_145" data-name="Path 145" d="M9.036,7.882a1.113,1.113,0,0,0,1.24-.229l.362-.362a.907.907,0,0,0,0-1.283l-.422-.422a.93.93,0,0,0-1.283,0l-.17.17a.321.321,0,0,1-.233.1h-.04a.327.327,0,0,1-.233-.1l-.183-.183a.327.327,0,0,1-.1-.233A.333.333,0,0,1,8.1,5.083l.153-.123a.679.679,0,0,0,.256-.532.688.688,0,0,0-.2-.482l-.489-.489a.93.93,0,0,0-1.283,0L6.18,3.82a1.116,1.116,0,0,0-.326.795,1.1,1.1,0,0,0,.09.439A4.969,4.969,0,0,0,8.5,7.646ZM6.43,4.844a.61.61,0,0,1-.047-.236.578.578,0,0,1,.17-.412l.362-.362a.377.377,0,0,1,.532,0l.489.489a.154.154,0,0,1,.043.106.142.142,0,0,1-.057.116l-.153.123a.86.86,0,0,0-.07,1.28l.183.183a.855.855,0,0,0,.608.253h.04a.855.855,0,0,0,.608-.253l.17-.17a.383.383,0,0,1,.532,0l.422.422a.377.377,0,0,1,0,.532L9.9,7.277a.587.587,0,0,1-.648.12l-.539-.239A4.454,4.454,0,0,1,6.43,4.844Zm5.8.741A3.989,3.989,0,1,0,8.245,9.575,3.993,3.993,0,0,0,12.234,5.585Zm-7.447,0A3.457,3.457,0,1,1,8.245,9.043,3.463,3.463,0,0,1,4.787,5.585ZM15.16,10.106H11.8l.824-1.044A5.588,5.588,0,1,0,2.66,5.585V5.6A5.612,5.612,0,0,0,3.866,9.063l.824,1.044H1.33A1.329,1.329,0,0,0,0,11.436V15.16a1.329,1.329,0,0,0,1.33,1.33H15.16a1.329,1.329,0,0,0,1.33-1.33V11.436A1.329,1.329,0,0,0,15.16,10.106Zm.8,1.33v.8H13.83v-1.6h1.33A.8.8,0,0,1,15.958,11.436Zm-1.6,4.521H13.3V13.83H8.84c.013-.017.03-.027.043-.043l.808-1.021h2.543V10.638H13.3v2.128h2.66V13.83h-1.6ZM2.128,10.638H3.192v2.128H6.8l.808,1.021c.013.017.03.027.043.043H4.791v2.128H3.727V13.83H.532V12.766h1.6Zm3.192,3.723H7.181v1.6H5.319ZM7.713,13.9a.809.809,0,0,0,1.064,0v2.061H7.713Zm5.053,2.061H9.309v-1.6h3.457ZM11.7,10.638v1.6H10.113l1.263-1.6Zm-5.326,1.6H3.723v-1.6h1.39Zm-5.047-1.6H1.6v1.6H.532v-.8A.8.8,0,0,1,1.33,10.638Zm-.8,4.521v-.8h2.66v1.6H1.33A.8.8,0,0,1,.532,15.16Zm14.628.8h-.266v-1.6h1.064v.8A.8.8,0,0,1,15.16,15.958Zm.8-10.638v.532h-.532V5.319Zm-1.064,0v.532h-.532V5.319Zm-12.766,0v.532H1.6V5.319Zm-1.064,0v.532H.532V5.319ZM3.225,5.6v-.01A5.053,5.053,0,1,1,12.241,8.73L8.5,13.458a.294.294,0,0,1-.445,0L4.315,8.733A5.1,5.1,0,0,1,3.225,5.6Z" transform="translate(0.856 0.856)" fill="#f90"/>
    <path id="Path_147" data-name="Path 147" d="M178.347,97.957l.153-.123a.679.679,0,0,0,.256-.532.688.688,0,0,0-.2-.482l-.489-.489a.93.93,0,0,0-1.283,0l-.359.362a1.116,1.116,0,0,0-.326.795,1.1,1.1,0,0,0,.09.439,4.969,4.969,0,0,0,2.557,2.593l.539.239a1.113,1.113,0,0,0,1.24-.229l.362-.362a.907.907,0,0,0,0-1.283l-.422-.422a.93.93,0,0,0-1.283,0l-.17.17a.321.321,0,0,1-.233.1h-.04a.327.327,0,0,1-.233-.1l-.183-.183a.327.327,0,0,1-.1-.233A.322.322,0,0,1,178.347,97.957Zm-.18-.535-.153.123a.86.86,0,0,0-.07,1.28l.183.183a.855.855,0,0,0,.608.253h.04a.855.855,0,0,0,.608-.253l.17-.17a.383.383,0,0,1,.532,0l.422.422a.377.377,0,0,1,0,.532l-.359.362a.587.587,0,0,1-.648.12l-.539-.239a4.436,4.436,0,0,1-2.284-2.314.61.61,0,0,1-.047-.236.578.578,0,0,1,.17-.412l.362-.362a.377.377,0,0,1,.532,0l.489.489a.154.154,0,0,1,.043.106A.167.167,0,0,1,178.168,97.422Z" transform="translate(-169.389 -92.025)" fill="#fff"/>
    <g id="Group_160" data-name="Group 160" transform="translate(5.082 2.422)">
      <path id="Path_148" data-name="Path 148" d="M131.113,55.159a4.029,4.029,0,1,1,4.013-4.029A4.025,4.025,0,0,1,131.113,55.159Zm0-7.5a3.467,3.467,0,1,0,3.447,3.467A3.461,3.461,0,0,0,131.113,47.662Z" transform="translate(-127.1 -47.1)" fill="#fff"/>
    </g>
  </g>
</svg>
