<?xml version="1.0" encoding="utf-8"?>
<!-- Generator: Adobe Illustrator 22.0.1, SVG Export Plug-In . SVG Version: 6.00 Build 0)  -->
<svg version="1.1" id="Layer_1" xmlns="http://www.w3.org/2000/svg" xmlns:xlink="http://www.w3.org/1999/xlink" x="0px" y="0px"
	 viewBox="0 0 54 54" style="enable-background:new 0 0 54 54;" xml:space="preserve">
<style type="text/css">
	.st0{fill:#FFFFFF;}
</style>
<title>ic_livetracking</title>
<g>
	<g>
		<g>
			<rect x="0.5" y="52.2" class="st0" width="53" height="1.7"/>
		</g>
	</g>
	<g>
		<g>
			<path class="st0" d="M50.2,8l-3.5-7c-0.2-0.4-0.7-0.6-1.2-0.4c0,0,0,0,0,0l-7.1,3.5C38,4.3,37.8,4.8,38,5.3
				c0.2,0.4,0.7,0.6,1.2,0.4l5.1-2.5l-1.4,3.9c-6.1,17.3-22,29.4-40.4,31l0.2,1.7c19.2-1.6,35.6-14.2,41.9-32.2l1.4-4l2.6,5.1
				c0.2,0.4,0.7,0.6,1.2,0.4C50.2,8.9,50.4,8.4,50.2,8z"/>
		</g>
	</g>
	<g>
		<g>
			<path class="st0" d="M11.1,43.2H4.9C4.4,43.2,4,43.5,4,44v5.2c0,0.5,0.4,0.9,0.9,0.9h6.2c0.5,0,0.9-0.4,0.9-0.9V44
				C12,43.5,11.6,43.2,11.1,43.2z M10.2,48.4H5.8v-3.5h4.4V48.4z"/>
		</g>
	</g>
	<g>
		<g>
			<path class="st0" d="M20.8,40.5h-6.2c-0.5,0-0.9,0.4-0.9,0.9v7.9c0,0.5,0.4,0.9,0.9,0.9h6.2c0.5,0,0.9-0.4,0.9-0.9v-7.9
				C21.7,40.9,21.3,40.5,20.8,40.5z M20,48.4h-4.4v-6.1H20V48.4z"/>
		</g>
	</g>
	<g>
		<g>
			<path class="st0" d="M30.6,36.2h-6.2c-0.5,0-0.9,0.4-0.9,0.9v12.2c0,0.5,0.4,0.9,0.9,0.9h6.2c0.5,0,0.9-0.4,0.9-0.9V37
				C31.4,36.6,31,36.2,30.6,36.2z M29.7,48.4h-4.4V37.9h4.4V48.4z"/>
		</g>
	</g>
	<g>
		<g>
			<path class="st0" d="M40.3,30h-6.2c-0.5,0-0.9,0.4-0.9,0.9v18.3c0,0.5,0.4,0.9,0.9,0.9h6.2c0.5,0,0.9-0.4,0.9-0.9V30.9
				C41.2,30.4,40.8,30,40.3,30z M39.4,48.4H35V31.8h4.4V48.4z"/>
		</g>
	</g>
	<g>
		<g>
			<path class="st0" d="M50,17.8h-6.2c-0.5,0-0.9,0.4-0.9,0.9v30.6c0,0.5,0.4,0.9,0.9,0.9H50c0.5,0,0.9-0.4,0.9-0.9V18.7
				C50.9,18.2,50.5,17.8,50,17.8z M49.1,48.4h-4.4V19.6h4.4V48.4z"/>
		</g>
	</g>
</g>
</svg>
