<?xml version="1.0" encoding="utf-8"?>
<!-- Generator: Adobe Illustrator 22.0.1, SVG Export Plug-In . SVG Version: 6.00 Build 0)  -->
<svg version="1.1" id="Layer_1" xmlns="http://www.w3.org/2000/svg" xmlns:xlink="http://www.w3.org/1999/xlink" x="0px" y="0px"
	 viewBox="0 0 54 54" style="enable-background:new 0 0 54 54;" xml:space="preserve">
<style type="text/css">
	.st0{fill:#6742C0;}
</style>
<title>ic_livetracking</title>
<g>
	<title>ic_dashboard</title>
	<g>
		<polygon class="st0" points="20.9,10.7 32.9,10.7 26.9,0.3 		"/>
		<rect x="24.3" y="8.5" class="st0" width="4.9" height="45.2"/>
		<g>
			<polygon class="st0" points="14.6,15.1 14.1,25.9 4.9,19.7 			"/>
			<path class="st0" d="M13.3,17.4c0,0,8.3,2.1,11.2,8.2V33c0,0-5.2-9.4-10.2-10.5l-1.6-0.2L13.3,17.4z"/>
		</g>
		<g>
			<polygon class="st0" points="38.7,16.2 39.2,27 48.4,20.8 			"/>
			<path class="st0" d="M40,18.5c0,0-8.3,2.1-11.2,8.2V34c0,0,5.2-9.4,10.2-10.5l1.6-0.2L40,18.5z"/>
		</g>
	</g>
</g>
</svg>
