<svg xmlns="http://www.w3.org/2000/svg" xmlns:xlink="http://www.w3.org/1999/xlink" width="14" height="14" viewBox="0 0 14 14">
  <defs>
    <clipPath id="clip-ic_SuspiciousVehicles">
      <rect width="14" height="14"/>
    </clipPath>
  </defs>
  <g id="ic_SuspiciousVehicles" clip-path="url(#clip-ic_SuspiciousVehicles)">
    <path id="Path_32" data-name="Path 32" d="M12.577,6.1h-.424A5.693,5.693,0,0,0,6.858.8V.4A.38.38,0,1,0,6.1.4V.8A5.693,5.693,0,0,0,.8,6.1H.38a.38.38,0,1,0,0,.759H.8A5.693,5.693,0,0,0,6.1,12.153v.424a.38.38,0,1,0,.759,0v-.424a5.693,5.693,0,0,0,5.295-5.295h.424a.38.38,0,1,0,0-.759ZM6.858,11.393v-.36a.38.38,0,0,0-.759,0v.36A4.936,4.936,0,0,1,1.563,6.858h.36a.38.38,0,0,0,0-.759h-.36A4.936,4.936,0,0,1,6.1,1.563v.36a.38.38,0,0,0,.759,0v-.36A4.936,4.936,0,0,1,11.393,6.1h-.36a.378.378,0,1,0,0,.757h.36A4.938,4.938,0,0,1,6.858,11.393Zm0,0" transform="translate(0.5 0.5)" fill="#fff"/>
    <g id="Group_4" data-name="Group 4" transform="translate(3.8 3.394)">
      <path id="Path_1" data-name="Path 1" d="M14.682,3.287h.5a.18.18,0,0,0,.166-.141l.076-.449a.124.124,0,0,1,.244.041l-.076.449a.426.426,0,0,1-.41.347h-.5" transform="translate(-9.22 -1.486)" fill="#fff"/>
      <path id="Path_2" data-name="Path 2" d="M2.882,3.534h-.5a.425.425,0,0,1-.41-.347l-.076-.449A.123.123,0,1,1,2.137,2.7l.076.449a.18.18,0,0,0,.167.141h.5" transform="translate(-1.892 -1.486)" fill="#fff"/>
      <path id="Subtraction_2" data-name="Subtraction 2" d="M1.9,6.709H1.236A1.109,1.109,0,0,1,.185,5.814,15.261,15.261,0,0,1,0,3.354,15.261,15.261,0,0,1,.185.894,1.109,1.109,0,0,1,1.236,0H3.789A1.107,1.107,0,0,1,4.84.894a15.2,15.2,0,0,1,.185,2.46,15.2,15.2,0,0,1-.185,2.46,1.107,1.107,0,0,1-1.051.894H3.125V5.578H3.3v-.4a.788.788,0,1,0-1.577,0v.4H1.9v1.13ZM4.013,3.354a.494.494,0,1,0,.494.494A.495.495,0,0,0,4.013,3.354Zm-3,0a.494.494,0,1,0,.494.494A.495.495,0,0,0,1.012,3.354ZM3.748.494V2.86h.776A13.754,13.754,0,0,0,4.353.978.613.613,0,0,0,3.789.494Zm-2.224,0V2.86H3.5V.494Zm-.288,0A.613.613,0,0,0,.672.978,13.8,13.8,0,0,0,.5,2.86h.776V.494Z" transform="translate(0.715 0)" fill="#fff" stroke="rgba(0,0,0,0)" stroke-width="1"/>
      <path id="Path_6" data-name="Path 6" d="M8.264,12.676v1.576a.506.506,0,0,0,1.012,0V12.676Z" transform="translate(-5.543 -7.263)" fill="#fff"/>
    </g>
  </g>
</svg>
