<?xml version="1.0" encoding="utf-8"?>
<!-- Generator: Adobe Illustrator 22.0.1, SVG Export Plug-In . SVG Version: 6.00 Build 0)  -->
<svg version="1.1" id="Layer_1" xmlns="http://www.w3.org/2000/svg" xmlns:xlink="http://www.w3.org/1999/xlink" x="0px" y="0px"
	 viewBox="0 0 54 54" style="enable-background:new 0 0 54 54;" xml:space="preserve">
<style type="text/css">
	.st0{fill:#6742C0;}
	.st1{fill:#FFFFFF;}
</style>
<title>ic_livetracking</title>
<g>
	<path class="st0" d="M27,42.6c-7.7,0-15.4,0-23.1,0c-1.7,0-2.5-0.9-2.5-2.6c0-12.1,0-24.1,0-36.2c0-1.7,0.9-2.6,2.5-2.6
		c15.4,0,30.7,0,46.1,0c1.7,0,2.6,1,2.6,2.7c0,12,0,24,0,36c0,1.7-0.9,2.5-2.5,2.5C42.4,42.6,34.7,42.6,27,42.6
		C27,42.6,27,42.6,27,42.6z M14.6,21.9C14.6,21.9,14.6,21.9,14.6,21.9c0,4,0,8,0,11.9c0,1.9,1.8,2.9,3.4,1.9
		c6.6-4,13.2-7.9,19.9-11.9c1.8-1.1,1.8-2.9,0-4C31.4,16,24.8,12.1,18.3,8.2c-0.9-0.5-1.7-0.6-2.6-0.1c-0.8,0.5-1,1.3-1,2.2
		C14.7,14.2,14.6,18.1,14.6,21.9z"/>
	<path class="st0" d="M45.4,46c1.7,0,3.3,0,4.9,0c1,0,1.9,0.6,2.2,1.6c0.4,1.4-0.6,2.7-2,2.8c-1.5,0-3,0-4.4,0c-0.2,0-0.4,0-0.6,0
		c0,0.2-0.1,0.3-0.1,0.5c-0.2,1-1.1,1.8-2.1,1.8c-1,0-2-0.8-2.1-1.8c-0.1-0.5-0.3-0.5-0.7-0.5c-12.2,0-24.5,0-36.7,0
		c-1.2,0-2.1-0.6-2.3-1.7C1.1,47.3,2.1,46,3.5,46c1.8,0,3.5,0,5.3,0c10.5,0,21,0,31.6,0c0.4,0,0.6,0,0.7-0.5c0.1-1,1.1-1.8,2.1-1.8
		c1,0,2,0.8,2.1,1.8C45.3,45.6,45.3,45.8,45.4,46z"/>
	<path class="st1" d="M14.6,21.9c0-3.9,0-7.8,0-11.7c0-0.9,0.2-1.7,1-2.2c0.9-0.5,1.7-0.4,2.6,0.1c6.5,3.9,13.1,7.8,19.6,11.7
		c1.8,1.1,1.8,2.9,0,4c-6.6,4-13.2,7.9-19.9,11.9c-1.6,1-3.4,0-3.4-1.9C14.6,29.9,14.7,25.9,14.6,21.9
		C14.6,21.9,14.6,21.9,14.6,21.9z M18.9,13.7c0,5.5,0,11,0,16.5c4.7-2.8,9.3-5.5,14-8.3C28.2,19.2,23.6,16.4,18.9,13.7z"/>
	<path class="st0" d="M18.9,13.7c4.7,2.8,9.3,5.5,14,8.3c-4.7,2.8-9.3,5.5-14,8.3C18.9,24.7,18.9,19.2,18.9,13.7z"/>
</g>
</svg>
