<?xml version="1.0" encoding="utf-8"?>
<!-- Generator: Adobe Illustrator 22.0.1, SVG Export Plug-In . SVG Version: 6.00 Build 0)  -->
<svg version="1.1" id="Layer_1" xmlns="http://www.w3.org/2000/svg" xmlns:xlink="http://www.w3.org/1999/xlink" x="0px" y="0px"
	 viewBox="0 0 14 14" style="enable-background:new 0 0 14 14;" xml:space="preserve">
<style type="text/css">
	.st0{fill:#6742C0;}
</style>
<g id="ic_VideoStreaming">
	<path id="Subtraction_3" class="st0" d="M9.3,12.1H1.1c-0.6,0-1.1-0.4-1.1-1.1V5C0.1,4.4,0.5,4,1.1,4h8.2c0.6,0,1.1,0.4,1.1,1.1v6
		C10.3,11.7,9.8,12.1,9.3,12.1z M7.6,6.5L7.6,6.5v2.8h1.9V8.8H8.3V8.1h1.1V7.6H8.3V7h1.1V6.5H7.6z M4.3,6.5l1.1,2.8h0.7l1.1-2.8H6.5
		L5.9,8.4c0,0.1-0.1,0.2-0.1,0.3l0,0c0-0.1,0-0.2-0.1-0.3L5,6.5H4.3z M3.2,6.5v2.8h0.6V6.5H3.2z M1,6.5v2.8h1.8V8.8H1.6V6.5H1L1,6.5
		z"/>
	<path id="XMLID_823_" class="st0" d="M10.7,7.6L13.3,6c0.1-0.1,0.3-0.1,0.4,0c0.1,0.1,0.2,0.2,0.2,0.4v3.3c0,0.2-0.1,0.3-0.2,0.4
		c-0.1,0.1-0.3,0.1-0.4,0l-2.6-1.6c-0.2-0.1-0.3-0.4-0.1-0.7C10.6,7.7,10.6,7.7,10.7,7.6L10.7,7.6z"/>
</g>
</svg>
