<?xml version="1.0" encoding="utf-8"?>
<!-- Generator: Adobe Illustrator 22.0.1, SVG Export Plug-In . SVG Version: 6.00 Build 0)  -->
<svg version="1.1" id="Layer_1" xmlns="http://www.w3.org/2000/svg" xmlns:xlink="http://www.w3.org/1999/xlink" x="0px" y="0px"
	 viewBox="0 0 14 14" style="enable-background:new 0 0 14 14;" xml:space="preserve">
<style type="text/css">
	.st0{fill:#6742C0;}
</style>
<image style="overflow:visible;" width="1366" height="768" xlink:href="27DAE717.jpg"  transform="matrix(1 0 0 1 -1843.1167 -413.0036)">
</image>
<g id="ic_vehicles_1_">
	<g id="Group_2_1_" transform="translate(0 0)">
		<path id="Path_1_1_" class="st0" d="M10.8,3.6h0.9c0.1,0,0.3-0.1,0.3-0.2l0.1-0.8c0-0.1,0.1-0.2,0.2-0.2s0.2,0.1,0.2,0.2l0,0
			l-0.1,0.8C12.3,3.7,12,4,11.7,4h-0.9"/>
		<path id="Path_2_1_" class="st0" d="M3.2,4H2.3C2,4,1.7,3.7,1.6,3.4L1.5,2.6c0-0.1,0.1-0.2,0.2-0.2c0.1,0,0.2,0.1,0.2,0.2L2,3.3
			c0,0.1,0.1,0.2,0.3,0.2h0.9"/>
		<path id="Subtraction_2_1_" class="st0" d="M6,11.9H4.8c-0.9,0-1.6-0.7-1.8-1.5C2.8,9,2.7,7.6,2.7,6.2C2.7,4.8,2.8,3.4,3,2
			c0.2-0.9,0.9-1.5,1.8-1.5h4.4c0.9,0,1.6,0.7,1.8,1.5c0.2,1.4,0.3,2.8,0.3,4.2c0,1.4-0.1,2.8-0.3,4.2c-0.2,0.9-0.9,1.5-1.8,1.5H8
			V10h0.3V9.3C8.3,8.6,7.7,8,7,8C6.3,8,5.7,8.6,5.7,9.3V10H6L6,11.9L6,11.9z M9.6,6.2c-0.5,0-0.8,0.4-0.8,0.8c0,0.5,0.4,0.8,0.8,0.8
			c0.5,0,0.8-0.4,0.8-0.8C10.4,6.6,10,6.2,9.6,6.2L9.6,6.2z M4.4,6.2C4,6.2,3.6,6.6,3.6,7.1c0,0.5,0.4,0.8,0.8,0.8
			c0.5,0,0.8-0.4,0.8-0.8C5.3,6.6,4.9,6.2,4.4,6.2L4.4,6.2z M9.1,1.3v4h1.3c0-1.1-0.1-2.1-0.3-3.2C10,1.7,9.6,1.4,9.1,1.3L9.1,1.3z
			 M5.3,1.3v4h3.4v-4H5.3z M4.8,1.3c-0.5,0-0.9,0.4-1,0.8C3.7,3.2,3.6,4.3,3.6,5.4h1.3L4.8,1.3L4.8,1.3z"/>
		<path id="Path_6_1_" class="st0" d="M6.1,9.7v2.7c0,0.5,0.4,0.9,0.9,0.9s0.9-0.4,0.9-0.9l0,0V9.7H6.1z"/>
	</g>
</g>
</svg>
