<svg xmlns="http://www.w3.org/2000/svg" xmlns:xlink="http://www.w3.org/1999/xlink" viewBox="0 0 14 14">
  <defs>
    <style>
      .cls-1 {
        clip-path: url(#clip-ic_vehicles);
      }

      .cls-2, .cls-3 {
        fill: #fff;
      }

      .cls-3 {
        stroke: rgba(0,0,0,0);
      }
    </style>
    <clipPath id="clip-ic_vehicles">
      <rect width="14" height="14"/>
    </clipPath>
  </defs>
  <g id="ic_vehicles" class="cls-1">
    <g id="Group_2" data-name="Group 2" transform="translate(0 0)">
      <path id="Path_1" data-name="Path 1" class="cls-2" d="M14.682,3.775h.857a.307.307,0,0,0,.283-.24l.129-.766a.211.211,0,0,1,.416.071l-.129.765a.726.726,0,0,1-.7.591h-.857" transform="translate(-3.87 -0.205)"/>
      <path id="Path_2" data-name="Path 2" class="cls-2" d="M3.58,4.2H2.723a.725.725,0,0,1-.7-.591L1.895,2.84a.21.21,0,1,1,.415-.071l.129.766a.307.307,0,0,0,.284.24H3.58" transform="translate(-0.392 -0.205)"/>
      <path id="Subtraction_2" data-name="Subtraction 2" class="cls-3" d="M-30.762,11.438h-1.131a1.89,1.89,0,0,1-1.792-1.525A26.017,26.017,0,0,1-34,5.719a26.017,26.017,0,0,1,.315-4.194A1.89,1.89,0,0,1-31.893,0h4.353a1.888,1.888,0,0,1,1.791,1.525,25.922,25.922,0,0,1,.315,4.194,25.922,25.922,0,0,1-.315,4.194,1.888,1.888,0,0,1-1.791,1.525h-1.132V9.51h.3V8.829a1.346,1.346,0,0,0-1.344-1.345,1.346,1.346,0,0,0-1.345,1.345V9.51h.3v1.927Zm3.6-5.72A.843.843,0,0,0-28,6.561a.843.843,0,0,0,.842.842.843.843,0,0,0,.842-.842A.843.843,0,0,0-27.159,5.719Zm-5.116,0a.843.843,0,0,0-.842.842.843.843,0,0,0,.842.842.843.843,0,0,0,.842-.842A.843.843,0,0,0-32.275,5.719ZM-27.611.842V4.876h1.323a23.45,23.45,0,0,0-.292-3.209,1.045,1.045,0,0,0-.96-.824Zm-3.791,0V4.876h3.37V.842Zm-.491,0a1.045,1.045,0,0,0-.961.824,23.529,23.529,0,0,0-.292,3.209h1.323V.842Z" transform="translate(36.719 0.5)"/>
      <path id="Path_6" data-name="Path 6" class="cls-2" d="M8.264,12.676v2.687a.862.862,0,0,0,1.725,0V12.676Z" transform="translate(-2.124 -2.947)"/>
    </g>
  </g>
</svg>
