<svg xmlns="http://www.w3.org/2000/svg" xmlns:xlink="http://www.w3.org/1999/xlink" viewBox="0 0 14 14">
  <defs>
    <style>
      .cls-1 {
        clip-path: url(#clip-ic_driverduty);
      }

      .cls-2 {
        fill: none;
      }

      .cls-3, .cls-5 {
        fill: #fff;
      }

      .cls-4, .cls-5 {
        stroke: none;
      }
    </style>
    <clipPath id="clip-ic_driverduty">
      <rect width="14" height="14"/>
    </clipPath>
  </defs>
  <g id="ic_driverduty" class="cls-1">
    <g id="Group_7" data-name="Group 7" transform="translate(-0.5 1.3)">
      <g id="Path_12" data-name="Path 12" class="cls-2" transform="translate(9.856 5.597)">
        <path class="cls-4" d="M0,0H2.342V1.042H0Z"/>
        <path class="cls-5" d="M 3.337860107421875e-06 -2.741813659667969e-06 L 2.341923475265503 -2.741813659667969e-06 L 2.341923475265503 1.041857242584229 L 3.337860107421875e-06 1.041857242584229 L 3.337860107421875e-06 -2.741813659667969e-06 Z"/>
      </g>
      <g id="Path_11" data-name="Path 11" class="cls-2" transform="translate(9.856 7.68)">
        <path class="cls-4" d="M0,0H3.073V1.042H0Z"/>
        <path class="cls-5" d="M 3.337860107421875e-06 -2.741813659667969e-06 L 3.072843551635742 -2.741813659667969e-06 L 3.072843551635742 1.041857242584229 L 3.337860107421875e-06 1.041857242584229 L 3.337860107421875e-06 -2.741813659667969e-06 Z"/>
      </g>
      <g id="Path_10" data-name="Path 10" class="cls-2" transform="translate(14.856 9.764)">
        <path class="cls-4" d="M-5,0H-.778V1.042H-5Z"/>
        <path class="cls-5" d="M -4.999999523162842 -2.741813659667969e-06 L -0.7779593467712402 -2.741813659667969e-06 L -0.7779593467712402 1.041857242584229 L -4.999999523162842 1.041857242584229 L -4.999999523162842 -2.741813659667969e-06 Z"/>
      </g>
      <g id="Group_6" data-name="Group 6" transform="translate(1 0.7)">
        <g id="Group_1" data-name="Group 1" transform="translate(0 4.68)">
          <path id="Path_1" data-name="Path 1" class="cls-3" d="M7.585,12.427a2.2,2.2,0,0,0-2.2,2.2h4.4A2.2,2.2,0,0,0,7.585,12.427Z" transform="translate(-3.535 -9.966)"/>
          <path id="Path_2" data-name="Path 2" class="cls-3" d="M7.618,8.382a.305.305,0,0,0-.262.145L6.627,9.634a.291.291,0,0,1-.466,0L5.433,8.527a.305.305,0,0,0-.262-.145A2.871,2.871,0,0,0,2.345,11.12v2.622a.073.073,0,0,0,.073.072H3.875a.422.422,0,0,0,0-.845H3.657a2.738,2.738,0,0,1,5.475,0H8.914a.422.422,0,1,0,0,.845h1.457a.073.073,0,0,0,.073-.072V11.12A2.871,2.871,0,0,0,7.618,8.382Z" transform="translate(-2.345 -8.382)"/>
        </g>
        <path id="Path_3" data-name="Path 3" class="cls-3" d="M7.794.69A1.874,1.874,0,1,0,9.668,2.564,1.874,1.874,0,0,0,7.794.69Zm0,3.144a1.271,1.271,0,1,1,1.271-1.27A1.271,1.271,0,0,1,7.794,3.834Z" transform="translate(-3.745 -0.69)"/>
      </g>
    </g>
  </g>
</svg>
