<svg id="Layer_1" data-name="Layer 1" xmlns="http://www.w3.org/2000/svg" viewBox="0 0 54 54"><defs><style>.cls-1{fill:#fff;}</style></defs><title>ic_driverlist</title><path class="cls-1" d="M27,37.31A10.87,10.87,0,0,0,16.13,48.18H37.87A10.87,10.87,0,0,0,27,37.31Z"/><path class="cls-1" d="M33.05,25.14a1.52,1.52,0,0,0-1.3.72l-3.6,5.47a1.43,1.43,0,0,1-2.3,0l-3.6-5.47a1.52,1.52,0,0,0-1.3-.72c-7.78.43-14,6.34-14,13.54v13a.36.36,0,0,0,.36.36h7.2a2.09,2.09,0,0,0,0-4.18H13.47a13.53,13.53,0,0,1,27.06,0H39.46a2.09,2.09,0,1,0,0,4.18h7.2a.36.36,0,0,0,.36-.36v-13C47,31.48,40.83,25.57,33.05,25.14Z"/><path class="cls-1" d="M27,2a9.27,9.27,0,1,0,9.27,9.27A9.27,9.27,0,0,0,27,2Zm0,15.55a6.29,6.29,0,1,1,6.28-6.28A6.28,6.28,0,0,1,27,17.55Z"/></svg>