<?xml version="1.0" encoding="utf-8"?>
<!-- Generator: Adobe Illustrator 22.0.1, SVG Export Plug-In . SVG Version: 6.00 Build 0)  -->
<svg version="1.1" id="Layer_1" xmlns="http://www.w3.org/2000/svg" xmlns:xlink="http://www.w3.org/1999/xlink" x="0px" y="0px"
	 viewBox="0 0 54 54" style="enable-background:new 0 0 54 54;" xml:space="preserve">
<style type="text/css">
	.st0{fill:#FFFFFF;}
</style>
<title>ic_livetracking</title>
<g>
	<path class="st0" d="M25.9,12c0-1.9,0-3.7,0-5.6c1.1,0,2.1,0,3.3,0c0,1.5-0.1,3,0.1,4.5c0,0.5,0.6,1.2,1.1,1.3
		c6.3,2,9.5,6.2,9.5,12.9c0,0.2,0,0.5,0,0.7c-0.6,6.9,0.2,13.6,4,19.7c0.1,0.2,0.2,0.5,0.4,1.1c-1.7,0-3.3,0-4.9,0
		c-1.8,0-3.6,0-5.4,0c-1.6-0.1-2.8-0.1-3.6,1.9c-0.9,2.3-4.5,1.9-5.6-0.3c-0.2-0.5-0.4-1-0.6-1.6c-4.3,0-8.5,0-13.1,0
		c1.2-2.7,2.4-5.2,3.4-7.8c0.6-1.5,0.9-3.1,1-4.6c0.2-2.8,0.2-5.7,0-8.5C14.9,19.1,18.6,13.5,25.9,12z M39,43.2
		c-0.3-0.8-0.5-1.4-0.8-2c-1.5-2.6-1.9-5.4-1.7-8.3c0.1-2.8,0-5.6,0-8.3c0-5.3-3.9-9.3-9-9.3c-5,0-9,4-9,9.3c0,3.3-0.1,6.6,0,9.9
		c0.1,2.1-0.3,4-1.3,5.8c-0.5,0.9-0.8,1.8-1.2,2.9C23.8,43.2,31.3,43.2,39,43.2z"/>
	<path class="st0" d="M39.3,13c-0.7-0.8-1.3-1.6-2-2.3c2.2-2.1,4.5-4.3,7-6.6c0.5,0.5,1.2,1.3,1.9,2C43.9,8.4,41.7,10.6,39.3,13z"/>
	<path class="st0" d="M11.3,4.1c2,2,4.2,4.3,6.5,6.6c-0.7,0.6-1.5,1.3-2.2,1.9c-2.1-2.1-4.4-4.4-6.8-6.9C9.5,5.4,10.4,4.8,11.3,4.1z
		"/>
	<path class="st0" d="M11.3,29c0.3,1.1,0.5,2,0.9,3.2C9.1,33,6,33.8,2.8,34.7c-0.3-1.1-0.6-2.1-0.9-3.2C5.1,30.7,8.1,29.8,11.3,29z"
		/>
	<path class="st0" d="M42.8,32.2c0.3-1.2,0.6-2.1,0.9-3.2c3.1,0.8,6.2,1.6,9.4,2.5c-0.2,1-0.5,2-0.8,3.2
		C49.1,33.8,46.1,33,42.8,32.2z"/>
	<path class="st0" d="M1.8,16.4c3.2,0.9,6.2,1.7,9.4,2.5c-0.3,1.1-0.6,2.1-0.9,3.2C8,21.5,5,20.7,0.9,19.6
		C1.2,18.4,1.5,17.4,1.8,16.4z"/>
	<path class="st0" d="M43.7,22.1c-0.3-1.2-0.6-2.1-0.9-3.2c3.2-0.9,6.2-1.7,9.4-2.6c0.3,1,0.5,2,0.9,3.2C50,20.4,47,21.2,43.7,22.1z
		"/>
</g>
</svg>
