<svg id="Layer_1" data-name="Layer 1" xmlns="http://www.w3.org/2000/svg" viewBox="0 0 54 54"><defs><style>.cls-1{fill:#303e48;}.cls-2{fill:#e6e6e6;}.cls-3{fill:#d1d1d1;}.cls-4{fill:#ffb04c;}.cls-11,.cls-5{fill:#fa6657;}.cls-6{fill:#f44a46;}.cls-7{fill:#162630;}.cls-8{fill:#ffdb6c;}.cls-9{fill:#e89b46;}.cls-10{opacity:0.2;}.cls-11{stroke:#fff;stroke-miterlimit:10;}.cls-12{fill:#fff;}</style></defs><title>ic_stoppageVehc</title><circle class="cls-1" cx="45.03" cy="46.52" r="3.91"/><circle class="cls-2" cx="45.03" cy="46.52" r="2.39"/><circle class="cls-3" cx="45.03" cy="46.52" r="0.82"/><path class="cls-4" d="M44.12,38.57a8.11,8.11,0,0,1,.86,0,6.7,6.7,0,0,1,6.57,5.41,1.09,1.09,0,0,1-1.06,1.3h-9"/><circle class="cls-1" cx="9.08" cy="46.52" r="3.91"/><circle class="cls-2" cx="9.08" cy="46.52" r="2.39"/><circle class="cls-3" cx="9.08" cy="46.52" r="0.82"/><rect class="cls-5" x="26.6" y="34.52" width="6.14" height="8.7"/><rect class="cls-6" x="26.6" y="34.52" width="6.14" height="2.09"/><path class="cls-1" d="M31.9,35H25.76V31.6H31.9a1.68,1.68,0,0,1,1.68,1.67h0A1.68,1.68,0,0,1,31.9,35Z"/><rect class="cls-2" x="24.93" y="17.56" width="1.67" height="24.66"/><path class="cls-4" d="M46.71,38.7h1.36a1.08,1.08,0,0,0,1.08-1.09V35.52a1.08,1.08,0,0,0-1.08-1.08H46.71a2.13,2.13,0,0,0-2.13,2.13h0A2.13,2.13,0,0,0,46.71,38.7Z"/><path class="cls-1" d="M42.17,17.56A3.35,3.35,0,0,0,45.43,15a.61.61,0,0,0-.61-.75H11.3a7.54,7.54,0,0,0-7.52,7.52v9.43a3.94,3.94,0,0,0,6.79,2.71l2.81-3v-10a3.36,3.36,0,0,1,3.36-3.37H36.59V28.38l4.18.9,4-.9a27.57,27.57,0,0,0-3.58-10.82Z"/><path class="cls-7" d="M41.21,17.56H36.59v3H42.7A22.2,22.2,0,0,0,41.21,17.56Z"/><path class="cls-2" d="M42.91,25.81a20,20,0,0,0-2.13-6,.6.6,0,0,0-.54-.33H38.68a.61.61,0,0,0-.61.62v5.82a.61.61,0,0,0,.61.61H42.3A.61.61,0,0,0,42.91,25.81Z"/><path class="cls-8" d="M36.59,28.38V42.22H19.18V35.38A4.48,4.48,0,0,0,14.66,31H3.78V45.23H41.45A27.31,27.31,0,0,0,45,31.64a29.27,29.27,0,0,0-.19-3.26Z"/><path class="cls-9" d="M45.21,38.53H45a8.11,8.11,0,0,0-.86,0l-2.67,6.66h1.33A27.15,27.15,0,0,0,45.21,38.53Z"/><path class="cls-4" d="M45,31c0-.89-.08-1.73-.18-2.57h-8.2V31Z"/><path class="cls-4" d="M18.76,33.52A4.52,4.52,0,0,0,14.66,31H3.78v2.57Z"/><path class="cls-5" d="M40.38,32.07h-1a.84.84,0,1,1,0-1.67h1a.84.84,0,1,1,0,1.67Z"/><path class="cls-4" d="M3.16,45.23a.73.73,0,0,1-.72-.83,6.69,6.69,0,0,1,13.34.83Z"/><ellipse class="cls-10" cx="27.28" cy="51.92" rx="21.12" ry="0.7"/><circle class="cls-11" cx="26.21" cy="14.25" r="10.75"/><path class="cls-12" d="M24.6,11.28a.35.35,0,0,1,.3.16l.74,1.12c.22.33.41.63.6,1h0c.2-.36.39-.67.59-1l.72-1.1a.38.38,0,0,1,.31-.16h1L27,13.94a.36.36,0,0,0,0,.42l1.94,2.86h-1a.37.37,0,0,1-.31-.17l-.76-1.17c-.23-.34-.43-.67-.64-1h0c-.2.36-.41.68-.63,1l-.75,1.17a.34.34,0,0,1-.31.17h-1l2-2.82a.36.36,0,0,0,0-.42l-1.87-2.7Z"/></svg>